<?xml version="1.0" encoding="UTF-8" standalone="no"?>
<svg
   version="1.0"
   width="600pt"
   height="600pt"
   viewBox="0 0 600 600"
   preserveAspectRatio="xMidYMid"
   id="svg1"
   sodipodi:docname="logo5.svg"
   xml:space="preserve"
   inkscape:version="1.4 (86a8ad7, 2024-10-11)"
   inkscape:export-filename="logo5.png"
   inkscape:export-xdpi="96"
   inkscape:export-ydpi="96"
   xmlns:inkscape="http://www.inkscape.org/namespaces/inkscape"
   xmlns:sodipodi="http://sodipodi.sourceforge.net/DTD/sodipodi-0.dtd"
   xmlns="http://www.w3.org/2000/svg"
   xmlns:svg="http://www.w3.org/2000/svg"><defs
     id="defs1" /><sodipodi:namedview
     id="namedview1"
     pagecolor="#505050"
     bordercolor="#eeeeee"
     borderopacity="1"
     inkscape:showpageshadow="0"
     inkscape:pageopacity="0"
     inkscape:pagecheckerboard="0"
     inkscape:deskcolor="#505050"
     inkscape:document-units="pt"
     inkscape:zoom="0.50333738"
     inkscape:cx="285.09705"
     inkscape:cy="368.54008"
     inkscape:window-width="1366"
     inkscape:window-height="705"
     inkscape:window-x="-8"
     inkscape:window-y="-8"
     inkscape:window-maximized="1"
     inkscape:current-layer="svg1" /><path
     style="fill:#eb417d;fill-opacity:1;stroke-width:1.4139"
     d="m 79.966072,366.81759 c -7.85688,-1.74982 -15.994168,-6.09703 -21.585007,-11.53144 -5.37613,-5.22573 -20.219022,-29.89458 -19.349901,-32.15949 0.492031,-1.28219 3.748701,-1.49171 19.437456,-1.25057 l 18.846405,0.28965 4.970449,8.38741 c 7.565752,12.76679 7.458944,12.6977 20.369256,13.17561 6.06012,0.22431 11.79362,-0.026 12.74107,-0.55618 1.72351,-0.96452 -3.31999,-10.19997 -27.628941,-50.59297 -3.12396,-5.19093 -5.679926,-10.08213 -5.679926,-10.86935 0,-1.15084 3.917861,-1.4313 19.994637,-1.4313 h 19.99462 l 20.83174,35.35736 c 17.75625,30.13742 20.83173,35.98711 20.83173,39.62294 0,5.11022 -3.04463,9.46175 -8.09717,11.57285 -4.67444,1.95311 -66.895023,1.94117 -75.676418,-0.0146 z m 78.719848,-3.73849 c 2.92627,-2.61462 3.45513,-3.8064 3.41157,-7.68809 -0.0448,-4.01335 -2.5073,-8.74735 -19.48743,-37.46696 -10.68973,-18.08025 -20.16503,-33.70826 -21.0562,-34.72891 -1.42304,-1.62982 -3.79517,-1.85575 -19.4832,-1.85575 -12.230767,0 -17.862889,0.36597 -17.862889,1.16073 0,0.63841 7.657331,14.06579 17.016299,29.83867 9.35897,15.77286 16.86891,29.44695 16.68879,30.3869 -0.27579,1.43907 -2.34823,1.75579 -13.12217,2.00527 -15.379866,0.35613 -15.849232,0.10525 -23.174897,-12.39039 -2.705677,-4.61517 -5.654328,-8.67321 -6.552567,-9.01791 -0.898239,-0.34468 -8.766977,-0.62668 -17.486085,-0.62668 -12.348817,0 -15.974631,0.31717 -16.403569,1.43495 -0.855489,2.22935 13.863879,26.16153 18.916218,30.75586 4.896676,4.45276 10.605832,7.70081 17.225235,9.79973 3.067907,0.97282 14.434257,1.36462 41.074735,1.41592 l 36.83305,0.071 z m -82.612812,-0.0175 c -6.146711,-2.21284 -13.250054,-6.82846 -17.488864,-11.36391 -3.747521,-4.00979 -16.83837,-25.95107 -16.148845,-27.06674 0.297539,-0.48142 7.648385,-0.87531 16.335266,-0.87531 18.016097,0 15.306636,-1.39795 23.91629,12.3398 2.968692,4.73693 5.841274,8.02285 7.679122,8.78411 1.810435,0.74991 7.799713,1.10092 15.620863,0.91552 12.14485,-0.28791 12.69876,-0.39975 13.01583,-2.62805 0.34572,-2.42942 -4.41002,-11.11014 -23.071954,-42.11355 -5.864422,-9.74271 -10.662604,-17.93713 -10.662604,-18.20984 0,-0.27272 7.935728,-0.365 17.634988,-0.20509 l 17.63496,0.29076 18.53331,31.28253 c 22.58691,38.12466 23.08876,39.15404 21.47407,44.04659 -2.28867,6.9347 -1.81151,6.85794 -42.375,6.81556 -32.976363,-0.0344 -37.158598,-0.23438 -42.097432,-2.01238 z M 254.93623,319.51391 c -2.88131,-2.88131 -2.69676,-7.74052 0.6073,-15.98866 3.29601,-8.22801 4.73745,-9.46632 10.99495,-9.4453 7.48451,0.0252 8.38054,1.01393 6.26484,6.91351 -1.95415,5.44913 -1.38984,6.23249 4.04091,5.60932 2.80852,-0.32225 3.45925,-1.4567 10.21777,-17.81209 3.97004,-9.60733 7.79037,-17.83157 8.48964,-18.27608 2.31187,-1.46963 13.48069,-0.97657 14.09418,0.6222 0.6626,1.72665 -14.75008,40.10572 -17.87901,44.5205 -3.41511,4.81856 -7.67081,5.97746 -21.95056,5.97746 -11.34526,0 -12.99419,-0.23503 -14.88002,-2.12086 z m 32.19172,-1.39402 c 1.52628,-1.00006 3.68096,-3.60076 4.7882,-5.77936 2.78019,-5.47022 16.04134,-38.07167 16.04134,-39.43627 0,-1.59881 -11.17739,-1.40448 -12.42765,0.21605 -0.56246,0.72903 -3.80801,8.2448 -7.21231,16.70169 -3.40432,8.45687 -6.63993,15.97266 -7.19022,16.7017 -0.56047,0.74248 -3.27559,1.32552 -6.17285,1.32552 -5.79613,0 -6.20876,-0.76871 -3.6719,-6.84034 0.82523,-1.975 1.22289,-3.86844 0.88369,-4.20763 -0.33916,-0.33919 -3.11717,-0.6167 -6.17334,-0.6167 h -5.55664 l -3.28022,7.87947 c -4.32576,10.39094 -4.26649,12.49567 0.43125,15.31192 3.36514,2.01738 26.01456,1.05432 29.54065,-1.25606 z m -29.92925,-0.32283 c -2.93509,-2.0558 -2.59031,-5.4844 1.4761,-14.67929 l 2.59723,-5.8728 h 4.90897 c 4.61035,0 4.86246,0.14503 4.1445,2.38595 -0.42046,1.31229 -0.99801,3.87267 -1.28347,5.68973 -0.46276,2.94566 -0.19625,3.36547 2.45885,3.87302 1.63782,0.31309 4.60434,0.30533 6.59228,-0.0175 4.04264,-0.656 3.39682,0.48473 12.90812,-22.80076 l 5.52263,-13.52042 h 5.18656 c 2.85262,0 5.18354,0.11938 5.17982,0.26511 -0.0588,2.30948 -16.3315,39.82389 -18.08308,41.68833 -3.29527,3.50769 -8.23231,4.69233 -19.5844,4.69936 -7.11323,0.005 -10.20278,-0.43522 -12.02411,-1.71094 z m 46.12987,1.63988 c -1.86795,-1.46934 -2.79406,-3.21449 -2.79406,-5.26514 0,-5.2576 12.81867,-36.02166 16.58019,-39.7915 4.20184,-4.21114 6.82799,-4.70637 24.95714,-4.70637 14.25891,0 14.85022,0.0886 17.36445,2.60285 1.43157,1.43159 2.60287,3.81095 2.60287,5.28749 0,3.34296 -12.0917,33.83996 -15.08244,38.04006 -2.98204,4.18791 -7.90531,6.03044 -16.11335,6.03044 -5.13126,0 -7.10934,-0.4203 -7.8018,-1.65765 -0.84126,-1.50324 -1.0558,-1.50324 -2.30338,0 -2.18375,2.63127 -13.83744,2.26968 -17.40962,-0.54018 z m 14.92693,0.28868 c 1.32234,-0.84037 4.54794,-7.75386 4.54794,-9.74772 0,-0.61641 -1.22502,-1.5865 -2.72226,-2.15574 -3.17434,-1.20688 -3.16104,-1.2824 2.60959,-14.81888 l 3.84254,-9.01361 8.37361,-0.31268 c 4.60551,-0.17195 8.80312,0.11678 9.32806,0.64177 0.88479,0.8848 -5.61763,19.18743 -7.84939,22.09401 -0.51294,0.66805 -2.55217,1.51844 -4.53162,1.88979 -3.04734,0.57167 -3.87159,1.38892 -5.37728,5.33156 -2.47932,6.49197 -1.6048,7.35081 6.6956,6.57573 11.30601,-1.05579 11.93806,-1.84201 22.56056,-28.06424 5.43241,-13.41024 5.63739,-14.25511 4.11663,-16.96681 l -1.6005,-2.85381 -17.19441,-0.29138 c -19.63352,-0.33272 -22.20172,0.36523 -25.54041,6.94089 -2.17414,4.28208 -12.22234,28.98327 -13.34732,32.81128 -0.86589,2.94639 0.97784,6.50137 4.00421,7.72072 2.90315,1.16971 10.37544,1.30519 12.08445,0.21912 z m -11.15326,-0.94393 c -1.34522,-0.27028 -2.95051,-1.599 -3.56729,-2.95269 -0.94022,-2.06356 0.0114,-5.26334 5.88473,-19.80137 5.04865,-12.49537 7.90175,-18.15485 10.21168,-20.25625 l 3.20554,-2.91617 16.68495,0.0162 c 9.17673,0.01 17.21715,0.36684 17.86758,0.79532 3.01779,1.98807 2.32315,5.49394 -4.35795,21.99534 -8.05288,19.88951 -9.96255,22.22665 -19.09366,23.36751 -7.30049,0.91213 -8.53545,-0.008 -6.50181,-4.84466 1.1567,-2.75099 2.45067,-3.84312 5.59397,-4.72144 3.98299,-1.11292 4.20757,-1.44215 8.647,-12.67569 2.50677,-6.34319 4.30431,-12.19361 3.99449,-13.00095 -0.43584,-1.13584 -2.78613,-1.39887 -10.39013,-1.16275 l -9.82685,0.30513 -4.4514,11.13448 c -2.44826,6.12393 -4.47632,11.74276 -4.50679,12.48624 -0.0304,0.74347 1.13757,1.80535 2.59566,2.35969 3.09589,1.17708 3.12896,1.46119 0.74073,6.36257 -1.59277,3.26883 -2.31391,3.72874 -6.04651,3.85618 -2.33093,0.0796 -5.33869,-0.0763 -6.68394,-0.3467 z m 24.45623,-11.90407 c 3.17663,-0.64746 3.75014,-1.45874 7.495,-10.60254 2.48626,-6.0707 3.67536,-10.28118 3.07354,-10.88299 -0.53985,-0.53987 -4.03139,-0.83768 -7.75898,-0.66178 l -6.77743,0.31978 -3.947,9.54384 c -4.59329,11.10648 -4.75994,12.19488 -1.8673,12.19488 1.18476,0 2.43347,0.72796 2.7749,1.61769 0.48008,1.25111 0.95466,1.3406 2.09409,0.39497 0.81034,-0.67253 3.02126,-1.53826 4.91318,-1.92385 z m 26.91223,12.55932 c -1.97263,-1.55164 -2.79338,-3.18844 -2.79166,-5.56723 0.002,-3.77796 15.2539,-42.06567 17.26513,-43.34368 2.30003,-1.4615 13.49604,-0.99616 14.10325,0.58617 0.30356,0.79104 -2.33598,8.67129 -5.86562,17.51166 -3.52964,8.84037 -6.41754,16.544 -6.41754,17.11917 0,1.57482 14.37625,1.31719 15.61191,-0.27975 0.56412,-0.72903 3.76623,-8.2448 7.11577,-16.70171 3.34957,-8.45687 6.83795,-16.21123 7.75196,-17.2319 2.1587,-2.41062 13.80653,-2.68507 14.70394,-0.34645 0.71314,1.8584 -14.97378,41.02375 -17.94333,44.7989 -3.73326,4.74608 -7.73355,5.65265 -24.94234,5.65265 -14.37613,0 -16.04879,-0.19777 -18.59147,-2.19783 z m 35.45995,0.0726 c 2.08462,-0.57908 4.82249,-2.15167 6.08412,-3.49461 2.10869,-2.2446 18.22692,-40.29213 18.22692,-43.02516 0,-1.6779 -11.12169,-1.56116 -12.43065,0.13042 -0.56412,0.72906 -3.76865,8.24481 -7.1212,16.7017 -3.35256,8.45689 -6.5868,15.97264 -7.18722,16.70171 -1.29465,1.57196 -17.34106,1.86361 -18.28742,0.33237 -0.3376,-0.54624 2.2588,-8.1879 5.76975,-16.98146 3.51096,-8.79356 6.38356,-16.4589 6.38356,-17.03408 0,-1.54641 -11.21629,-1.29364 -12.41414,0.27976 -0.55504,0.72906 -4.51339,10.02153 -8.79635,20.64995 -10.54857,26.17687 -10.33554,26.62429 12.7271,26.73095 7.29041,0.0336 14.96092,-0.41249 17.04553,-0.9916 z m -31.68352,-0.75155 c -1.34947,-0.25798 -2.8843,-1.62754 -3.42873,-3.05951 -1.08753,-2.86039 -0.15738,-5.71535 9.55446,-29.32291 l 5.56207,-13.52042 h 5.30002 c 3.81322,0 5.1527,0.37185 4.77479,1.32554 -0.28887,0.72904 -3.2365,8.17143 -6.55029,16.53864 -3.31377,8.36721 -5.76801,15.88296 -5.45383,16.70167 0.43229,1.1265 2.91165,1.48859 10.19268,1.48859 h 9.62146 l 2.94319,-6.62765 c 1.61873,-3.6452 4.99159,-11.75746 7.49525,-18.02722 l 4.5521,-11.39957 h 5.18549 c 2.85203,0 5.18547,0.19261 5.18547,0.42803 0,0.87709 -14.10526,35.24304 -15.98222,38.93896 -2.9809,5.86967 -7.76737,7.32294 -23.54006,7.1473 -7.13281,-0.0794 -14.06815,-0.35459 -15.41185,-0.61145 z m 51.24695,0.58551 c -2.59018,-2.03743 -2.85397,-2.81293 -2.3818,-7.00204 0.68533,-6.08029 2.5836,-7.85378 9.07392,-8.47741 4.44418,-0.42702 5.58993,-0.15072 7.20764,1.73868 1.59742,1.86568 3.10573,2.24644 8.89866,2.24644 6.8629,0 9.52024,-1.09515 9.52024,-3.92356 0,-1.0387 -2.59966,-1.37856 -10.54512,-1.37856 -9.5675,0 -10.81621,-0.23319 -13.46932,-2.51528 -3.98399,-3.42688 -3.70889,-7.99617 1.08094,-17.95464 5.47951,-11.39237 6.32893,-11.79824 25.59188,-12.22844 14.9826,-0.3346 16.0839,-0.22152 18.82254,1.93271 3.20323,2.51964 3.93776,7.74185 1.68969,12.01282 -1.75186,3.32823 -2.94756,3.87242 -8.54846,3.89065 -3.68585,0.0114 -5.52698,-0.55404 -7.022,-2.15876 -1.70346,-1.82841 -3.0864,-2.12411 -8.67955,-1.85573 -4.86861,0.2336 -6.95722,0.80338 -7.78643,2.12411 -0.62326,0.99269 -0.77824,2.15983 -0.34442,2.59367 0.43383,0.43381 5.59005,0.8991 11.45825,1.03399 8.37817,0.19253 11.1043,0.6387 12.69413,2.0775 3.30159,2.98787 2.62861,9.32117 -1.95252,18.37531 -5.62162,11.11055 -7.10558,11.75975 -26.88069,11.75975 -14.29361,0 -15.74406,-0.18027 -18.42758,-2.29121 z m 36.1949,-0.81658 c 3.73048,-1.69385 4.92816,-3.09392 7.80726,-9.12654 7.48539,-15.68421 5.73742,-18.518 -11.42251,-18.518 -12.07416,0 -13.66879,-0.8932 -10.42718,-5.84053 1.60289,-2.44631 2.35237,-2.64288 10.07717,-2.64288 6.44001,0 8.48489,0.3632 8.9559,1.59064 0.76892,2.00378 10.50594,2.21188 12.12653,0.25918 2.24373,-2.70353 2.61855,-7.0929 0.83776,-9.81072 -1.7189,-2.62339 -1.85224,-2.64334 -17.66658,-2.64334 -19.63174,0 -20.78426,0.45901 -25.39154,10.11269 -4.35919,9.1339 -5.08354,13.68971 -2.6109,16.42192 1.65465,1.82838 3.28571,2.09685 12.7379,2.09685 12.22881,0 14.20502,0.92137 12.06245,5.62379 -1.44242,3.16581 -3.6264,3.88609 -11.84223,3.90557 -4.80716,0.0114 -6.49453,-0.43716 -7.92376,-2.10638 -1.35055,-1.57732 -3.12818,-2.12082 -6.93648,-2.12082 -4.84071,0 -5.20455,0.20105 -6.6571,3.67742 -2.04812,4.90181 -1.97,5.52934 1.06632,8.56564 2.50528,2.50529 3.13151,2.602 16.7017,2.57957 11.5182,-0.0197 14.9054,-0.3895 18.50529,-2.02406 z m -33.30302,-0.0555 c -2.32178,-0.98275 -2.86812,-2.55284 -2.40462,-6.91059 0.36736,-3.45367 2.15146,-4.77192 6.45836,-4.77192 2.74211,0 4.39157,0.59399 5.08364,1.83068 1.3369,2.38889 15.2472,3.19574 19.19316,1.11326 3.28134,-1.73174 5.36341,-7.96917 3.13164,-9.38175 -0.82785,-0.52397 -6.53955,-0.95998 -12.69265,-0.96893 -11.9017,-0.0175 -13.73254,-0.68817 -13.73254,-5.03218 0,-4.1355 5.22809,-15.48286 8.55969,-18.57851 l 3.13846,-2.91616 h 16.38255 c 15.42778,0 16.45032,0.12668 17.54539,2.17277 0.84817,1.5848 0.83601,3.1631 -0.0448,5.83234 -1.13661,3.4439 -1.48611,3.65956 -5.93074,3.65956 -3.21996,0 -4.91719,-0.50619 -5.33333,-1.59064 -0.47837,-1.24659 -2.62202,-1.59064 -9.91094,-1.59064 -10.38295,0 -11.78406,0.76711 -12.05172,6.59841 l -0.1595,3.47564 12.50188,0.53021 c 16.49989,0.69978 17.23392,1.72913 10.94263,15.34576 -5.10983,11.05956 -6.26867,11.63809 -23.92539,11.94385 -7.90079,0.13675 -15.43875,-0.20565 -16.75103,-0.76116 z m 45.02189,1.76094 c -0.57447,-1.49703 17.15841,-46.26803 19.39161,-48.95888 1.09277,-1.31668 4.68478,-1.59944 20.31851,-1.59944 21.27734,0 21.50048,0.0859 18.95885,7.29146 -2.55235,7.23592 -3.25615,7.55449 -16.68938,7.55449 h -12.08463 l -1.53654,3.67742 c -1.88729,4.51692 -1.96426,5.77772 -0.2109,3.45613 1.01557,-1.34474 3.37381,-1.81123 10.08459,-1.99484 10.27915,-0.28124 11.68483,0.50991 9.91688,5.58144 -2.22105,6.37129 -3.84226,7.30708 -12.65934,7.30708 -5.69779,0 -8.48633,-0.46688 -9.77972,-1.63736 -1.6766,-1.51732 -2.09804,-0.91483 -5.7486,8.2183 -2.16664,5.4206 -4.43093,10.45214 -5.03174,11.18117 -1.53056,1.85721 -14.21238,1.79184 -14.92951,-0.077 z m 13.76909,-0.98344 c 0.47187,-0.72904 3.95966,-8.96059 7.75067,-18.29235 l 6.89276,-16.96679 12.69484,-0.53021 12.69485,-0.53022 2.39877,-4.24169 c 4.05624,-7.17254 4.56475,-6.97246 -16.90545,-6.65159 l -19.33913,0.28902 -9.33318,23.09944 c -5.13324,12.70471 -9.04805,23.56082 -8.69955,24.12468 0.93595,1.51443 10.83331,1.26352 11.84542,-0.30029 z m -10.50588,-0.31774 c -0.32056,-0.32052 3.50791,-10.81874 8.50769,-23.32935 l 9.09054,-22.74651 h 18.3706 18.37065 l -1.63877,3.92212 c -0.90132,2.15716 -1.89977,4.18523 -2.21877,4.5068 -0.319,0.32158 -6.36391,0.82328 -13.43314,1.1149 l -12.85311,0.53021 -6.54316,16.35914 c -3.59875,8.99753 -7.08646,17.22909 -7.75046,18.29234 -0.82641,1.32325 -2.487,1.93318 -5.26327,1.93318 -2.2308,0 -4.31825,-0.26226 -4.6388,-0.58283 z m 41.44977,-19.93135 c 0.65118,-0.78461 1.48505,-2.93198 1.85304,-4.7719 l 0.66907,-3.34533 h -8.0613 c -8.61112,0 -9.87573,0.76825 -11.78272,7.15789 -0.69654,2.33387 -0.52818,2.38595 7.71293,2.38595 5.76468,0 8.79887,-0.45047 9.60898,-1.42661 z m -15.77024,-0.6252 c 0,-0.54528 0.46539,-2.21544 1.03419,-3.71149 0.97466,-2.56355 1.46288,-2.72011 8.48339,-2.72011 4.09709,0 7.44923,0.45475 7.44923,1.01054 0,0.55579 -0.55379,2.22596 -1.23062,3.71148 -1.14414,2.5111 -1.74047,2.70095 -8.48342,2.70095 -3.98902,0 -7.25277,-0.44611 -7.25277,-0.99137 z m 17.45591,22.13335 c -0.78603,-1.27179 17.04173,-46.10588 19.47562,-48.97812 1.16289,-1.37237 3.17067,-1.85575 7.70811,-1.85575 3.37457,0 6.43134,0.47848 6.79276,1.06329 0.43797,0.70867 1.333,0.7016 2.68349,-0.0212 1.24994,-0.66894 10.67223,-0.97478 24.59055,-0.79819 25.7374,0.32654 25.24,0.10294 20.68556,9.29991 l -2.36308,4.77191 -9.77457,0.30443 -9.77456,0.30445 0.59055,2.95266 c 0.41948,2.09746 -1.02542,6.92368 -4.98845,16.66238 -3.06846,7.54032 -6.28678,14.54477 -7.15183,15.56541 -2.09445,2.47123 -13.71738,2.68547 -14.64434,0.26995 -0.59546,-1.55182 10.39275,-30.50179 12.5895,-33.16874 0.61213,-0.74314 0.92563,-1.52618 0.69674,-1.74013 -0.22895,-0.21392 -4.10945,-0.5693 -8.6234,-0.78973 l -8.20718,-0.40078 -7.00264,17.51707 c -3.85147,9.63438 -7.49385,18.11355 -8.09417,18.84259 -1.34787,1.63687 -14.19592,1.80484 -15.18866,0.19863 z m 13.11472,-0.85914 c 1.49745,-0.94933 19.26935,-43.73651 19.26935,-46.39242 0,-1.23794 -1.28137,-1.50047 -6.09744,-1.24927 l -6.09744,0.31802 -9.31246,22.74177 c -5.12184,12.50799 -9.07363,23.3641 -8.78179,24.12468 0.59716,1.55617 8.75255,1.89455 11.01978,0.45722 z m -10.42254,-0.8139 c 0,-0.37354 4.13277,-10.87173 9.18394,-23.32934 l 9.18396,-22.65022 h 5.13176 c 2.8225,0 5.13181,0.23357 5.13181,0.51905 0,1.22975 -17.26438,43.61449 -18.25393,44.81414 -1.10075,1.33441 -10.37754,1.91222 -10.37754,0.64637 z m 44.38854,0.32886 c 1.98758,-2.39491 12.89424,-29.51204 12.27372,-30.51606 -0.32169,-0.52051 -3.13676,-0.94641 -6.25569,-0.94641 h -5.6708 l -3.38628,8.2183 c -1.86244,4.52007 -4.75395,11.5111 -6.42553,15.53561 -1.6716,4.02452 -2.78872,7.72275 -2.48245,8.2183 0.90505,1.46442 10.65384,1.04846 11.94703,-0.50974 z m -10.4403,-0.97523 c 0.008,-0.72904 2.55216,-7.52902 5.65359,-15.11107 l 5.63899,-13.78552 4.95063,-0.32322 c 3.851,-0.25141 4.95066,0.0323 4.95066,1.27813 0,0.88073 -2.16304,6.75246 -4.80677,13.04831 -2.64374,6.29583 -5.25806,12.52067 -5.80962,13.83294 -0.82995,1.97465 -1.82934,2.38596 -5.79748,2.38596 -3.13656,0 -4.78958,-0.45841 -4.78,-1.32553 z m 42.8927,-37.16974 c 0.87982,-1.34275 1.90486,-3.9673 2.27785,-5.83232 l 0.6782,-3.39096 h -22.27162 c -16.55764,0 -22.53755,0.34008 -23.30807,1.32553 -1.59085,2.03465 -3.51085,8.34661 -2.85948,9.40054 0.31905,0.51622 10.32334,0.9386 22.23178,0.9386 21.42911,0 21.66812,-0.0252 23.25134,-2.44139 z m -44.21015,0.78512 c -0.32772,-0.32772 0.14228,-2.47509 1.04455,-4.77191 l 1.6404,-4.17606 h 21.57786 c 12.96799,0 21.57785,0.40322 21.57785,1.01052 0,1.62098 -2.50897,6.87145 -3.6899,7.72175 -1.25372,0.90272 -41.25903,1.10745 -42.15076,0.21569 z m -389.71941,31.61334 c -4.31143,-6.31603 -18.30187,-30.68048 -18.30187,-31.8728 0,-1.59629 96.01085,-1.85229 96.9958,-0.25863 0.34223,0.55376 -3.71465,8.66603 -9.01532,18.02722 l -9.63756,17.02037 h -29.02523 -29.02519 z m 68.20191,-14.58085 c 4.89228,-8.74852 8.90392,-16.26428 8.91477,-16.70169 0.0114,-0.43742 -20.97671,-0.79532 -46.63901,-0.79532 -30.43652,0 -46.6587,0.36914 -46.6587,1.06171 0,1.00641 16.08503,28.71811 18.32072,31.56341 0.81388,1.03581 7.46544,1.2781 29.11103,1.06042 l 28.05613,-0.28215 z m -65.47369,13.53796 c -2.58532,-3.02831 -16.78839,-27.30954 -16.78839,-28.70107 0,-0.97081 10.58537,-1.27347 44.53784,-1.27347 25.33085,0 44.53787,0.40719 44.53787,0.94422 0,0.51932 -3.70252,7.5579 -8.22782,15.64126 l -8.22782,14.69705 -27.1162,0.28263 c -24.81873,0.25871 -27.25169,0.12376 -28.71548,-1.59062 z M 35.161738,270.47003 c -2.713312,-2.07622 -21.12251,-34.59916 -20.732078,-36.6267 0.326789,-1.69704 8.25753,-1.83105 123.28661,-2.08328 78.9772,-0.17318 123.30778,0.10088 123.97328,0.76638 1.23839,1.23839 -19.85866,36.70963 -22.75577,38.26012 -3.07541,1.64591 -201.610467,1.33751 -203.772042,-0.31652 z M 249.81574,251.93027 c 6.12693,-9.9786 10.24494,-17.73961 9.79714,-18.46417 -0.58965,-0.95408 -29.50465,-1.0946 -122.15339,-0.59367 -66.759472,0.36096 -121.575784,0.85123 -121.814057,1.08949 -0.390453,0.39046 3.026647,6.59163 15.73787,28.56021 l 4.144649,7.16317 101.859078,-0.2704 101.85909,-0.2704 z M 34.008579,264.64304 c -5.043433,-7.99006 -16.758384,-29.1046 -16.365852,-29.49712 0.891522,-0.89154 240.202213,-1.76106 240.718103,-0.87463 0.30075,0.51678 -4.05783,8.33607 -9.68576,17.37619 l -10.2326,16.43659 -100.96023,0.27046 -100.960225,0.27046 z"
     id="path4" /></svg>
