<?xml version="1.0" encoding="UTF-8" standalone="no"?>
<svg
   version="1.0"
   width="600pt"
   height="600pt"
   viewBox="0 0 600 600"
   preserveAspectRatio="xMidYMid"
   id="svg9"
   sodipodi:docname="logo6.svg"
   xml:space="preserve"
   inkscape:version="1.4 (86a8ad7, 2024-10-11)"
   inkscape:export-filename="logo6.png"
   inkscape:export-xdpi="96"
   inkscape:export-ydpi="96"
   xmlns:inkscape="http://www.inkscape.org/namespaces/inkscape"
   xmlns:sodipodi="http://sodipodi.sourceforge.net/DTD/sodipodi-0.dtd"
   xmlns="http://www.w3.org/2000/svg"
   xmlns:svg="http://www.w3.org/2000/svg"><defs
     id="defs9" /><sodipodi:namedview
     id="namedview9"
     pagecolor="#505050"
     bordercolor="#eeeeee"
     borderopacity="1"
     inkscape:showpageshadow="0"
     inkscape:pageopacity="0"
     inkscape:pagecheckerboard="0"
     inkscape:deskcolor="#505050"
     inkscape:document-units="pt"
     inkscape:zoom="0.38714096"
     inkscape:cx="269.92752"
     inkscape:cy="373.24906"
     inkscape:window-width="1366"
     inkscape:window-height="705"
     inkscape:window-x="-8"
     inkscape:window-y="-8"
     inkscape:window-maximized="1"
     inkscape:current-layer="svg9" /><g
     transform="matrix(0.01814648,0,0,-0.01814648,256.177,308.03561)"
     fill="#000000"
     stroke="none"
     id="g9"><path
       fill="#d52b1e"
       d="m -6749.1916,3749.6714 c -430.2257,0 -1026.6172,-182.8285 -1459.8514,-778.9885 -79.6115,-108.7715 -144.6429,-247.1657 -182.8286,-383.4772 -132.3771,-464.4771 -39.3429,-975.7028 251.1,-1367.28 222.6343,-301.31996 506.8286,-526.73139 757.6971,-725.75996 122.6572,-97.2 383.0143,-343.44 467.0229,-447.814284 125.2028,-156.677146 220.5514,-249.942856 333.72,-594.771426 68.5028,-209.21143 78.2228,-484.84283 44.6657,-641.05713 785.2371,796.11427 1642.9114,1829.44284 1642.9114,2953.4914 0,1291.3714 -925.02,1985.6571 -1854.4371,1985.6571"
       id="path2"
       style="stroke-width:231.429" /><path
       fill="#b6bf00"
       d="m -8210.4316,-616.45997 c -327.7029,446.42571 -706.7829,717.42857 -1019.6743,1003.01142 -136.5428,124.27715 -286.0457,215.92286 -396.6686,326.31429 -530.6655,527.19426 -778.7575,1177.04566 -653.3225,1977.09426 99.051,627.4029 410.554,1039.5771 786.8568,1342.2857 C -9942.443,4361.3371 -10475.423,4540 -11077.6,4540 c -1494.797,0 -2744.512,-1201.1143 -2706.557,-2682.2571 67.808,-2673.46287 3416.348,-4951.6457 4796.1254,-5417.7429 737.7943,377.6915 1129.8343,1084.0115 1129.8343,1808.6143 0,528.3514 -226.3372,963.66859 -352.2343,1134.92573"
       id="path4"
       style="stroke-width:231.429" /><path
       fill="#d52b1e"
       d="m -2602.6859,-576.65425 c 257.1171,-184.44857 764.8714,-421.66286 1124.7428,-421.66286 276.5572,0 514.69716,105.3 514.69716,408.00857 0,296.22857 -373.29426,401.76 -752.14286,553.114283 -437.4,171.257137 -874.3371,442.028567 -874.3371,1152.977157 0,947.4685 687.5743,1448.7428 1684.56853,1448.7428 655.17429,0 1239.76285,-336.0343 1542.00857,-692.4343 L -18.785942,1175.26 c -295.534288,255.96 -623.237138,447.3514 -938.442848,447.3514 -257.11711,0 -449.43431,-105.3 -449.43431,-342.5142 0,-322.84289 276.0943,-401.52861 745.20002,-599.40003 449.66571,-190.69715 912.52285,-467.48571 912.52285,-1146.26571 0,-921.31716 -732.70285,-1514.00566 -1773.89997,-1514.00566 -733.1657,0 -1349.9229,309.42 -1593.8486,506.8285 l 513.7714,896.09145 z m 5240.6999,319.83428 c 38.1858,209.905713 50.9143,400.14 50.9143,543.39428 0,314.74286 -95.58,504.51428 -318.6771,504.51428 -299.2372,0 -496.8772,-300.85714 -592.6886,-845.177133 -38.1857,-208.748567 -57.3943,-432.077137 -57.3943,-601.714287 0,-288.35999 76.3715,-523.95427 312.4286,-523.95427 311.9657,0 497.1086,281.87999 605.4171,922.93713 m -89.5628,1833.37717 c 452.9057,0 1249.4828,-176.3486 1249.4828,-1263.60003 0,-144.41143 -6.48,-314.0485705 -32.4,-491.09143 -196.7142,-1283.73424 -987.2742,-1801.43994 -1892.16,-1801.43994 -790.0971,0 -1236.5228,472.1142 -1236.5228,1309.88566 0,157.37143 6.24857,347.14286 37.95428,530.66571 C 910.63119,1236.3572 1815.7483,1576.5572 2548.4512,1576.5572 m 2653.56,-3358.4914 H 4192.9826 l 441.1029,2644.99708 24.0685,618.60852 h 810 l 17.82,-453.3685 c 223.7915,401.76 538.0714,548.4857 791.4857,548.4857 175.8857,0 362.88,-44.6657 483.6857,-127.2857 l -289.98,-886.37145 c -114.5571,64.33715 -260.1257,114.78857 -410.5542,114.78857 -260.5886,0 -465.6343,-165.24 -520.02,-465.17142 l -338.58,-1994.9143 z m 1361.7257,0 553.1143,3160.8514 h 1027.3114 l -553.3457,-3160.8514 z m 1277.4857,4741.2771 c 309.1886,0 500.58,-228.6515 500.58,-507.5229 0,-378.3857 -302.94,-677.6228 -691.74,-677.6228 -315.6686,0 -493.6372,207.1285 -493.6372,492.0171 0,370.7486 289.7486,693.36 684.7972,693.36 M 10533.431,756.83717 c -72.206,32.4 -175.886,52.53428 -293.914,52.53428 -593.8459,0 -808.1487,-899.099993 -808.1487,-1438.09713 0,-314.28 71.28,-569.54572 384.1714,-569.54572 222.1713,0 378.3853,143.0229 443.4173,372.83143 L 10533.2,756.83717 Z m 729.926,-1929.65147 -45.592,-708.8657 h -919.697 v 308.7258 l -32.631,6.2485 c -227.726,-269.1514 -521.1773,-412.8685 -912.523,-412.8685 -697.9886,0 -1011.3429,517.2428 -1011.3429,1227.03423 0,1345.29428 744.0429,2329.09717 2106.9259,2329.09717 273.317,0 762.557,-65.2629 1251.797,-261.9772 z m 436.937,-609.1199 446.194,2606.81137 37.029,656.79423 h 855.36 l 12.497,-350.8457 c 241.611,274.0115 563.991,445.7315 979.406,445.7315 514.234,0 824.117,-241.8429 830.365,-789.86575 0,-101.82857 -12.497,-230.04 -31.242,-350.15142 l -383.94,-2218.47423 h -1035.412 l 322.843,1905.5828 c 18.514,101.82857 49.294,249.01714 49.294,369.82285 0,127.51715 -49.294,267.53143 -235.594,267.53143 -266.837,0 -421.663,-204.35143 -465.171,-471.42 L 12728.994,-1781.9342 Z M 17447.36,756.83717 c -71.743,32.4 -176.349,52.53428 -293.452,52.53428 -593.614,0 -808.843,-899.099993 -808.843,-1438.09713 0,-314.28 71.743,-569.54572 385.098,-569.54572 221.245,0 378.154,143.0229 443.185,372.83143 z m 730.388,-1929.65147 -45.823,-708.8657 h -919.465 v 308.7258 l -32.632,6.2485 c -228.42,-269.1514 -521.64,-412.8685 -912.523,-412.8685 -697.988,0 -1010.88,517.2428 -1010.88,1227.03423 0,1345.29428 743.118,2329.09717 2106.232,2329.09717 273.548,0 762.557,-65.2629 1252.26,-261.9772 z"
       id="path6"
       style="stroke-width:231.429" /></g></svg>
