<?xml version="1.0" encoding="UTF-8" standalone="no"?>
<!-- Generator: Adobe Illustrator 24.3.0, SVG Export Plug-In . SVG Version: 6.00 Build 0)  -->

<svg
   version="1.0"
   id="Layer_1"
   x="0px"
   y="0px"
   viewBox="0 0 600.00001 600.00003"
   xml:space="preserve"
   sodipodi:docname="logo4.svg"
   inkscape:version="1.4 (86a8ad7, 2024-10-11)"
   width="600"
   height="600"
   inkscape:export-filename="logo4.png"
   inkscape:export-xdpi="96"
   inkscape:export-ydpi="96"
   xmlns:inkscape="http://www.inkscape.org/namespaces/inkscape"
   xmlns:sodipodi="http://sodipodi.sourceforge.net/DTD/sodipodi-0.dtd"
   xmlns:xlink="http://www.w3.org/1999/xlink"
   xmlns="http://www.w3.org/2000/svg"
   xmlns:svg="http://www.w3.org/2000/svg"><defs
   id="defs4">
			<defs
   id="defs1">
				<rect
   id="SVGID_1_"
   x="143.92999"
   y="52.209999"
   width="468.70001"
   height="468.70001" />
			</defs>
			<clipPath
   id="SVGID_2_">
				<use
   xlink:href="#SVGID_1_"
   style="overflow:visible"
   id="use1" />
			</clipPath>
			
		
	
	

		
	</defs><sodipodi:namedview
   id="namedview4"
   pagecolor="#505050"
   bordercolor="#eeeeee"
   borderopacity="1"
   inkscape:showpageshadow="0"
   inkscape:pageopacity="0"
   inkscape:pagecheckerboard="0"
   inkscape:deskcolor="#505050"
   inkscape:zoom="0.43413907"
   inkscape:cx="130.14263"
   inkscape:cy="436.49608"
   inkscape:window-width="1366"
   inkscape:window-height="705"
   inkscape:window-x="-8"
   inkscape:window-y="-8"
   inkscape:window-maximized="1"
   inkscape:current-layer="Layer_1" />
<style
   type="text/css"
   id="style1">
	.st0{fill:#FCFCFC;}
	.st1{clip-path:url(#SVGID_2_);fill:#FB7701;}
	.st2{fill:none;}
</style>
<g
   id="g17"
   transform="matrix(1.1327253,0,0,1.1327253,-128.23191,-25.897461)"><path
     d="m 205.92969,295.71094 c -5.5,0 -10.09961,4.5 -10.09961,10 0,5.5 4.49961,10.09961 10.09961,10.09961 h 19.30078 v 58.69922 c 0,5.5 4.5,10.09961 10,10.0996 5.5,0 10.09961,-4.4996 10.09961,-10.0996 v -58.69922 h 19.30078 c 5.5,0 10.09961,-4.49961 10.09961,-10.09961 0,-5.5 -4.49961,-10 -10.09961,-10 z"
     style="fill:#fa7601;fill-opacity:1"
     id="path17" /><path
     d="m 297.23047,295.71094 c -5.5,0 -10.09961,4.5 -10.09961,10 v 68.79883 c 0,5.5 4.49961,10.09961 10.09961,10.0996 h 54.40039 c 5.5,0 10.1,-4.4996 10,-10.0996 0,-5.5 -4.5,-10.09961 -10,-10.09961 h -44.40039 v -14.30079 h 38.59961 c 5.5,0 10.09961,-4.5 10.09961,-10 0,-5.5 -4.49961,-10.0996 -10.09961,-10.0996 h -38.59961 v -14.29883 h 44.40039 c 5.5,0 10.1,-4.50157 10,-10.10157 0,-5.39999 -4.5,-9.89843 -10,-9.89843 z"
     style="fill:#fa7601;fill-opacity:1"
     id="path16" /><path
     d="m 385.13086,295.71094 c -5.5,0 -10.1,4.5 -10,10 v 68.89843 c 0,5.5 4.5,10.10157 10,10.10157 5.5,0 10.09961,-4.50156 10.09961,-10.10157 v -45.19921 l 16.90039,23.90039 c 3.5,4.9 10.79844,4.9 14.39844,0 l 16.90039,-23.90039 v 45.19921 c 0,5.5 4.49961,10.10157 10.09961,10.10157 5.5,0 10.1,-4.50156 10,-10.10157 v -68.89843 c 0,-5.5 -4.5,-10.1 -10,-10 h -6.19922 c -2.4,0 -4.7,1.09961 -6,3.09961 l -21.90039,33 -22,-33 c -1.4,-1.9 -3.69961,-3.09961 -6.09961,-3.09961 z"
     style="fill:#fa7601;fill-opacity:1"
     id="path15" /><path
     d="m 487.42969,295.71094 c -5.5,0 -10.1,4.5 -10,10 v 41.89843 c 0,24.5 15,37 39.5,37 24.5,0 40.09961,-12.3996 40.09961,-37.5996 v -41.29883 c 0,-5.5 -4.4,-10 -10,-10 -5.5,0 -10.09961,4.5 -10.09961,10 v 42.09961 c 0,13.2 -7.49922,20 -19.69922,20 -12.3,0 -19.70117,-6.99961 -19.70117,-20.59961 v -41.5 c 0,-5.5 -4.49961,-10.1 -10.09961,-10 z"
     style="fill:#fa7601;fill-opacity:1"
     id="path14" /><path
     d="m 505.33008,193.21094 c -15.4,0 -28.20078,11.89883 -29.30078,27.29883 l -1.69922,24.70117 c -0.8,11.7 8.49922,21.59922 20.19922,21.69922 h 45.5 c 11.8,0 21.00117,-9.89922 20.20117,-21.69922 l -1.70117,-24.70117 c -1.1,-15.4 -13.89883,-27.29883 -29.29883,-27.29883 z m 27.5,18.375 c 2.4,0 4.80078,0.67344 4.80078,2.02343 v 0.70118 c 0,11.3 -9.2,20.40039 -20.5,20.40039 -11.3,0 -20.40039,-9.20039 -20.40039,-20.40039 v -0.70118 c 0.1,-2.6 9.69922,-2.6 9.69922,0 v 0.70118 c 0,5.9 4.90078,10.79882 10.80078,10.79882 6,0 10.79883,-4.89882 10.79883,-10.79882 v -0.70118 c 0,-1.35 2.40078,-2.02343 4.80078,-2.02343 z"
     style="fill:#fa7601;fill-opacity:1"
     id="path13" /><path
     d="m 445.73047,192.00977 c -14.6,13.9 -0.60117,44.2 -27.20117,57 -2.9,1.4 -5.39883,-3.19922 -9.29883,-3.19922 -11.1,0.1 -32.40117,9.89882 -33.20117,14.79882 -0.7,4.10001 8.40156,7.3004 35.10156,7.4004 23.3,0 30.79844,-35.40039 38.89844,-35.4004 8.1,0 4.3,32.1004 3.5,35.4004 h 8.5 c -0.7,-3.3 -1.29922,-13.39961 -1.19922,-27.59961 0,-14.2 2.59961,-17.39961 4.59961,-28.09961 1.7,-9.4 -12.09922,-17.50078 -19.69922,-20.30078 z"
     style="fill:#fa7601;fill-opacity:1"
     id="path12" /><path
     d="m 302.54492,192.01758 c -1.58437,0.0672 -2.99023,0.59219 -4.11523,1.49219 -3.4,2.7 -11.40039,13.60078 -11.90039,14.30078 -8.7,12.4 -8.2,15.4 3,22.5 6.3,4 11.40156,-1.10117 13.60156,-2.70118 -1.1,6.5 -4.30156,16.80157 -9.10156,24.10157 -2.6,-2 -4.49922,-3.50156 -5.69922,-4.60157 -1.5,-1.4 -3.80078,-1.29843 -5.30078,0.10157 -0.7,0.7 -1.1,1.59961 -1,2.59961 0,1 0.50156,1.9 1.10156,2.5 11.7,10.7 26.99883,16.69883 43.29883,16.79882 16.4,0 31.8,-5.99882 43.5,-16.79882 1.5,-1.4 1.60117,-3.69961 0.20117,-5.09961 -1.5,-1.5 -3.80078,-1.50156 -5.30078,-0.10157 -0.9,0.8 -1.80078,1.6004 -2.80078,2.4004 l -5.09961,-11.4004 c -0.8,-2 -1.69922,-4.39843 -2.69922,-7.39843 0.5,-1.2 1.59961,-2.4 3.09961,-4 1.1,-1.1 1.99922,-2.20117 2.69922,-3.20117 3.4,-5.4 1.50039,-8.49961 0.40039,-10.59961 -2.4,-4.9 -6.2,-3.30039 -9,-0.40039 -3.4,3.6 -6.7,5.10078 -12,6.30078 -4.4,1 -7.89922,0.49922 -10.69922,-1.30078 -3.9,-2.5 -9.90039,-11.5 -9.90039,-11.5 -5.175,-10.275 -11.53203,-14.19375 -16.28516,-13.99219 z m 24.08594,57.89258 c 7.2,0 12.69922,3.49961 14.69922,10.09961 -4.9,1.3 -9.80078,1.90039 -14.80078,1.90039 -7.5,0 -10.2,-0.7 -15,-2 1.9,-5.8 8.30156,-10 15.10156,-10 z"
     style="fill:#fa7601;fill-opacity:1"
     id="path11" /><path
     d="m 251.5293,190.71094 c -7.8,0.5 -13.19922,3.9 -16.19922,8.5 -3.5,-5.3 -10.1,-9.00039 -20,-8.40039 l -0.19922,0.29882 c -1.1,1.8 -5.4,10.0004 1.5,18.9004 1.4,1.5 4.9,5.80117 3.5,11.20117 l -20.20117,32.59961 c -1.6,2.7 -0.90039,6.10039 1.59961,7.90039 5.2,3.7 15.70039,8.69922 33.90039,8.69922 18.1,0 28.60078,-4.99922 33.80078,-8.69922 l 0.69922,-0.60157 c 2,-1.89999 2.40039,-4.89882 0.90039,-7.29882 l -20.09961,-32.59961 0.0996,0.59961 -0.19922,-0.90039 c -1.1,-4.9 1.59922,-8.8 3.19922,-10.5 l 0.40039,-0.40039 c 7,-8.9 2.7,-17.1004 1.5,-18.9004 l -0.20117,-0.29882 -2.09961,-0.0996 z"
     style="fill:#fa7601;fill-opacity:1"
     id="path10" /></g>

</svg>
