<?xml version="1.0" encoding="UTF-8" standalone="no"?>
<!-- Generator: Adobe Illustrator 19.2.1, SVG Export Plug-In . SVG Version: 6.00 Build 0)  -->

<svg
   version="1.1"
   id="layer"
   x="0px"
   y="0px"
   viewBox="0 0 600 600"
   xml:space="preserve"
   sodipodi:docname="logo2.svg"
   width="600"
   height="600"
   inkscape:version="1.4 (86a8ad7, 2024-10-11)"
   inkscape:export-filename="logo2.png"
   inkscape:export-xdpi="96"
   inkscape:export-ydpi="96"
   xmlns:inkscape="http://www.inkscape.org/namespaces/inkscape"
   xmlns:sodipodi="http://sodipodi.sourceforge.net/DTD/sodipodi-0.dtd"
   xmlns="http://www.w3.org/2000/svg"
   xmlns:svg="http://www.w3.org/2000/svg"><defs
   id="defs11" /><sodipodi:namedview
   id="namedview11"
   pagecolor="#505050"
   bordercolor="#eeeeee"
   borderopacity="1"
   inkscape:showpageshadow="0"
   inkscape:pageopacity="0"
   inkscape:pagecheckerboard="0"
   inkscape:deskcolor="#505050"
   inkscape:zoom="0.84815951"
   inkscape:cx="326"
   inkscape:cy="326"
   inkscape:window-width="1366"
   inkscape:window-height="705"
   inkscape:window-x="-8"
   inkscape:window-y="-8"
   inkscape:window-maximized="1"
   inkscape:current-layer="layer" />
<style
   type="text/css"
   id="style1">
	.st0{fill:#030000;}
</style>











<g
   id="g11"
   transform="matrix(0.96777157,0,0,0.96777157,-14.52576,-18.982213)"><path
     class="st0"
     d="M 622.4,218.7 H 27.3 V 433.1 H 622.4 Z M 25,435.7 V 216.2 h 600 v 2.6 c 0,71.2 0,142.4 0,213.6 0,2.5 -0.5,3.3 -3.2,3.3 -173.5,-0.1 -347,-0.1 -520.5,-0.1 -24.5,0 -49,0 -73.5,0 -0.8,0.1 -1.7,0.1 -2.8,0.1"
     id="path1" /><path
     class="st0"
     d="m 134.6,322.7 c 8,0 15.7,0.4 23.4,-0.1 6.7,-0.5 9.7,-3.4 10.5,-9.5 0.5,-3.3 0.2,-6.7 -0.1,-10.1 -0.5,-5 -3.6,-8.1 -8.3,-8.6 -8.4,-0.8 -16.9,-0.8 -25.5,-1.2 z m 31.2,8.9 c 6.7,12.5 13.3,25.1 20.2,38.1 -4.5,0 -8.7,0.1 -12.9,-0.1 -0.5,0 -1.1,-1.2 -1.5,-1.9 -5.4,-10.8 -10.9,-21.7 -16.2,-32.5 -0.7,-1.4 -1.4,-2 -3.1,-2 -5.8,0.1 -11.6,0.1 -17.8,0.1 v 36.3 H 124 v -85.8 c 0.2,-0.1 0.5,-0.3 0.7,-0.3 11.3,0.1 22.6,-0.2 33.8,0.4 8.3,0.5 16,3.5 19.6,12 3.5,8.1 3.4,16.6 0,24.8 -2,5 -4.3,6.8 -12.3,10.9"
     id="path2" /><path
     class="st0"
     d="M 241,318.8 V 329 h -36.7 v 30.6 h 3.2 c 11.7,0 23.4,0 35.2,0 1.9,0 2.7,0.5 2.5,2.5 -0.2,2.5 0,5 0,7.7 h -51.7 v -86 h 50.3 v 9.9 H 204.3 V 319 H 241 Z"
     id="path3" /><path
     class="st0"
     d="m 253.2,355.8 c 3.7,1.2 7,2.3 10.4,3.2 8,2.1 16.1,2.7 24.2,0.8 9.9,-2.3 15.1,-13.7 10.5,-22.8 -1.3,-2.6 -3.6,-4.1 -6.2,-4.7 -5.7,-1.2 -11.6,-2.1 -17.3,-3.2 -5,-1 -9.9,-2.3 -14.2,-5.5 -6.1,-4.5 -7.7,-11 -7.2,-18 1,-13.2 8.4,-20.9 22.1,-22.8 9,-1.3 18,-0.5 26.8,2.1 4.2,1.3 4.1,1.3 4.1,5.7 v 6.4 c -3.2,-1.1 -6.1,-2.2 -9.1,-3 -8,-2.1 -16.1,-2.8 -24.1,-0.4 -8,2.3 -11.9,13.2 -7.4,20.2 1.7,2.6 4.3,3.8 7.2,4.3 6.1,1.1 12.3,1.9 18.4,3.2 5.6,1.1 10.8,3.2 14.7,7.7 10,11.6 4.8,32.5 -9.7,38.6 -9,3.8 -18.4,3.9 -27.9,2.3 -4.5,-0.7 -8.9,-2.2 -13.3,-3.3 -1.4,-0.3 -1.9,-1.1 -1.9,-2.6 0,-2.6 -0.1,-5.3 -0.1,-8.2"
     id="path4" /><path
     class="st0"
     d="m 471.3,368.6 h -8.9 v -56.4 c 5.2,-1.2 7.6,-0.6 9.1,2.2 10.1,-4.7 20,-5.9 29.3,1.9 3.6,-1.5 7.2,-3.3 11,-4.6 4.6,-1.6 9.4,-1.2 14.1,0.1 6.3,1.8 10.6,6.6 10.7,13.2 0.3,14.4 0.1,28.8 0.1,43.4 h -8.9 v -2.7 c 0,-12.4 0,-24.8 0,-37.2 0,-6.6 -2.3,-9.4 -8.9,-9.4 -4.2,0 -8.3,1.1 -12.5,1.9 -1.8,0.3 -2.3,1.6 -2.3,3.4 0.1,13.6 0,27.3 0,40.9 v 3.2 H 495 v -2.8 c 0,-12.3 0,-24.6 0,-37 0,-7 -2.2,-9.6 -9.2,-9.7 -4,0 -8,1 -12,1.8 -1.9,0.4 -2.6,1.6 -2.6,3.7 0.1,13.5 0.1,27.1 0.1,40.6 z"
     id="path5" /><path
     class="st0"
     d="m 385.3,368.6 h -8.9 V 312 h 7.8 c 0.3,0.8 0.7,1.6 1.1,2.5 2,-0.8 3.9,-1.8 6,-2.4 7,-2.1 14.1,-2.4 20.2,2 3,2.2 4.8,2 7.7,0.3 6.5,-3.8 13.5,-4.6 20.8,-2.4 6.4,1.9 10.5,6.7 10.6,13.3 0.2,14.2 0.1,28.5 0.1,42.7 0,0.1 -0.1,0.3 -0.3,0.6 h -8.6 c 0,-1.5 0,-2.9 0,-4.2 0,-11.8 0,-23.6 0,-35.4 0,-7.1 -2.4,-9.9 -9.4,-9.8 -4,0 -8,1.2 -12,1.9 -1.8,0.3 -2.3,1.5 -2.3,3.4 0.1,13.6 0,27.3 0,40.9 v 3.2 H 409 c 0,-0.9 0,-1.8 0,-2.7 0,-12.4 0,-24.8 0,-37.3 0,-6.7 -2.3,-9.4 -8.9,-9.4 -4.1,0 -8.2,1 -12.2,1.8 -1.8,0.3 -2.6,1.5 -2.6,3.7 0.1,13.5 0.1,27.1 0.1,40.6 v 3.3 z"
     id="path6" /><polygon
     class="st0"
     points="114.4,283.7 114.4,293.6 91.2,293.6 91.2,369.6 80.6,369.6 80.6,293.7 57.3,293.7 57.3,283.7 "
     id="polygon6" /><path
     class="st0"
     d="m 583.3,334.4 c 1.1,-5.5 -1.3,-11.5 -5.6,-14.4 -4.1,-2.7 -10.2,-2.5 -14.5,0.1 -3.6,2.2 -7.5,9.2 -6.4,14.2 h 26.5 z m 3.6,22.7 c 1.5,2 2.9,4 4.9,6.6 -3.2,1.7 -6.1,3.6 -9.3,4.7 -5.7,1.9 -11.6,2 -17.4,0.5 -8.1,-2.2 -13.4,-7.5 -16,-15.3 -3,-8.9 -3.1,-18.1 -0.2,-27.1 4.1,-12.8 16.5,-18.9 29.2,-14.7 5.1,1.7 8.8,5.1 11.2,9.9 2.7,5.3 4,14.2 2.8,20.5 h -35.8 c 0.1,6.8 1.7,12.5 7.3,16.5 6.1,4.3 13.7,3.8 23.3,-1.6"
     id="path7" /><path
     class="st0"
     d="m 329.3,334.5 c 8.6,0 17.2,0 25.9,-0.1 0.4,0 1,-0.8 1.1,-1.4 0.9,-5.9 -3.5,-12.8 -9.1,-14.4 -9.7,-2.8 -18.8,5.1 -17.9,15.9 m 36.1,7.7 h -36.5 c 0.3,6.6 1.6,12.5 7.2,16.3 7.9,5.2 15.8,3.8 23.4,-1.4 1.5,2.1 2.9,4.1 4.5,6.3 -3.8,3.5 -8.3,5.5 -13.3,6.2 -9.1,1.1 -17.5,-0.1 -24.1,-7.3 -3.8,-4.2 -5.8,-9.2 -6.5,-14.8 -0.8,-7.4 -1.1,-14.9 1.7,-22.1 4.6,-12.2 17.4,-18 29.5,-13.3 8.4,3.2 11.9,10.2 13.2,18.5 0.7,3.6 0.6,7.4 0.9,11.6"
     id="path8" /><path
     class="st0"
     d="m 568.6,304.5 c 1.6,-3.5 3.2,-7 4.7,-10.6 0.5,-1.1 1.2,-2.1 1.5,-3.3 1.3,-5.3 4.5,-7.4 9.9,-6.4 1.5,0.3 3.1,0 5,0 -0.5,0.8 -0.8,1.4 -1.2,1.9 -4.8,5.8 -9.5,11.7 -14.5,17.3 -1,1.2 -3.2,1.3 -4.8,2 -0.2,-0.3 -0.4,-0.6 -0.6,-0.9"
     id="path9" /><path
     class="st0"
     d="m 598.2,381.8 c 2.8,0 5.1,-2.4 5.1,-5.2 -0.1,-2.7 -2.3,-4.9 -5,-5 -2.8,0 -5.3,2.4 -5.3,5 0,2.8 2.5,5.2 5.2,5.2 m 0,1.1 c -3.6,0 -6.3,-2.5 -6.4,-6 -0.1,-3.5 3,-6.5 6.4,-6.5 3.3,0 6.1,2.8 6.2,6.1 0.1,3.7 -2.4,6.3 -6.2,6.4"
     id="path10" /><path
     class="st0"
     d="m 598.6,376.5 c 0.3,0 0.6,-0.1 0.8,-0.2 0.2,-0.1 0.3,-0.4 0.3,-0.8 0,-0.4 -0.1,-0.7 -0.4,-0.8 -0.1,-0.1 -0.3,-0.1 -0.6,-0.1 h -1.8 v 1.9 z m -2.5,-2.5 h 2.5 c 0.4,0 0.8,0.1 1,0.2 0.5,0.2 0.8,0.7 0.8,1.3 0,0.3 -0.1,0.6 -0.2,0.8 -0.1,0.2 -0.3,0.4 -0.6,0.5 0.2,0.1 0.4,0.2 0.5,0.3 0.1,0.1 0.2,0.4 0.2,0.7 v 0.7 c 0,0.2 0,0.4 0.1,0.5 0,0.2 0.1,0.3 0.2,0.3 v 0.1 h -0.9 c 0,0 0,-0.1 -0.1,-0.2 0,-0.1 0,-0.2 0,-0.4 v -0.9 c 0,-0.4 -0.1,-0.6 -0.4,-0.7 -0.1,-0.1 -0.4,-0.1 -0.7,-0.1 h -1.7 v 2.4 h -0.7 z"
     id="path11" /></g>
</svg>
